Coordinates
version=1
nRows=29
nColumns=22
inDegrees=yes

Units are S.I. units (second, meters, Newtons, ...)
If the header above contains a line with 'inDegrees', this indicates whether rotational values are in degrees (yes) or radians (no).

endheader
time	pelvis_tilt	pelvis_list	pelvis_rotation	pelvis_tx	pelvis_ty	pelvis_tz	hip_flexion_r	hip_adduction_r	hip_rotation_r	knee_angle_r	ankle_angle_r	subtalar_angle_r	hip_flexion_l	hip_adduction_l	hip_rotation_l	knee_angle_l	ankle_angle_l	subtalar_angle_l	lumbar_extension	lumbar_bending	lumbar_rotation
      4.04000000	      5.06511798	     -3.91570943	      5.10020241	      0.13948058	      1.06924818	     -0.21379581	     12.46145644	      5.04889179	     -5.81365987	    -15.37830019	      3.06534766	     -1.51498991	     -4.55780562	     -3.30916353	      5.85580532	    -37.32394239	      9.32783284	      8.60624437	     -4.54145813	      2.77671212	     -9.41332301
      4.05000000	      5.19820082	     -3.95512177	      5.31130293	      0.14723666	      1.07033428	     -0.21262254	     11.87456956	      5.18218501	     -6.03723446	    -15.35066543	      3.32113851	     -1.62297404	     -3.86213398	     -3.49947362	      5.98002992	    -39.23136174	      7.52796175	      9.82424121	     -4.58268379	      2.83126448	     -9.34795675
      4.06000000	      5.35312713	     -3.98506084	      5.55292100	      0.15486136	      1.07136213	     -0.21153793	     11.22906535	      5.29973441	     -6.33741122	    -15.24381987	      3.54892600	     -1.73710530	     -3.10602831	     -3.69284355	      6.10476585	    -41.21409511	      5.67098763	     10.90588062	     -4.65973697	      2.88583328	     -9.31871131
      4.07000000	      5.52463186	     -4.02724280	      5.78164795	      0.16231972	      1.07231673	     -0.21046503	     10.55805631	      5.43595069	     -6.64597114	    -15.10185666	      3.75845774	     -1.86466464	     -2.30238933	     -3.89609960	      6.23801974	    -43.24473223	      3.79737931	     11.88425507	     -4.77094303	      2.95628274	     -9.24054080
      4.08000000	      5.71336926	     -4.07613172	      6.01197352	      0.16960170	      1.07320003	     -0.20944976	      9.86614400	      5.58201134	     -6.95492683	    -14.93578073	      3.95618601	     -1.99550043	     -1.45469694	     -4.10516032	      6.37345896	    -45.30903665	      1.93423420	     12.66300222	     -4.91415526	      3.04305303	     -9.14985942
      4.09000000	      5.90920496	     -4.13081496	      6.22590033	      0.17669113	      1.07401287	     -0.20845860	      9.17399786	      5.74059831	     -7.24166257	    -14.76037992	      4.15023816	     -2.13199007	     -0.56924727	     -4.31100452	      6.51134207	    -47.37843820	      0.11052990	     13.28179464	     -5.08079395	      3.13892496	     -9.02136975
      4.10000000	      6.10820099	     -4.18996294	      6.43097856	      0.18358518	      1.07476697	     -0.20751743	      8.49076662	      5.90777846	     -7.49597824	    -14.58707769	      4.34266206	     -2.27167211	      0.34788840	     -4.51197801	      6.65292784	    -49.42728189	     -1.63855217	     13.78298029	     -5.26137230	      3.24409639	     -8.86659458
      4.11000000	      6.29627341	     -4.25146388	      6.61310017	      0.19027321	      1.07546270	     -0.20659818	      7.83774790	      6.08241322	     -7.70644600	    -14.42562842	      4.53571693	     -2.43107294	      1.29687329	     -4.70252075	      6.78898179	    -51.43047047	     -3.26261984	     14.26686027	     -5.44356373	      3.35124777	     -8.67784330
      4.12000000	      6.47541960	     -4.31311640	      6.77072997	      0.19677923	      1.07613247	     -0.20569231	      7.20426697	      6.26339064	     -7.86390542	    -14.26364299	      4.72490424	     -2.59214467	      2.25737205	     -4.88363990	      6.91416967	    -53.35261605	     -4.70616263	     14.73973191	     -5.62336255	      3.45591288	     -8.45246849
      4.13000000	      6.64059115	     -4.37068774	      6.89701530	      0.20310455	      1.07678549	     -0.20477694	      6.59794796	      6.44651599	     -7.96059469	    -14.10771868	      4.90684021	     -2.76446777	      3.22286147	     -5.05643424	      7.01457874	    -55.17083536	     -5.89893807	     15.22108151	     -5.79667784	      3.55071538	     -8.19179785
      4.14000000	      6.79758795	     -4.42647967	      6.99494230	      0.20929950	      1.07746156	     -0.20384539	      5.99284618	      6.63579870	     -8.00790007	    -13.92422178	      5.07169422	     -2.92241351	      4.16902403	     -5.22904378	      7.08853875	    -56.85074320	     -6.78482675	     15.59385068	     -5.96142977	      3.63632676	     -7.89668039
      4.15000000	      6.94509758	     -4.47052383	      7.05833256	      0.21534611	      1.07816137	     -0.20286999	      5.39788560	      6.81994298	     -8.00605628	    -13.72948174	      5.21631976	     -3.07186327	      5.08979105	     -5.39609672	      7.12666276	    -58.37714426	     -7.31830932	     15.79581680	     -6.12244466	      3.69834057	     -7.57844370
      4.16000000	      7.08122821	     -4.51215225	      7.09851444	      0.22125229	      1.07887588	     -0.20187619	      4.81393879	      7.00598846	     -7.96020820	    -13.52140510	      5.35047743	     -3.21688601	      5.98527231	     -5.56812642	      7.14008337	    -59.74137494	     -7.47180007	     15.77872294	     -6.27354558	      3.75254071	     -7.24915183
      4.17000000	      7.15767119	     -4.54432365	      7.11400312	      0.22706201	      1.07954365	     -0.20084015	      4.27550779	      7.18321363	     -7.88606713	    -13.27059515	      5.47061676	     -3.46148810	      6.89924976	     -5.73387530	      7.12414221	    -60.93247204	     -7.26908668	     15.35152983	     -6.35310064	      3.77616054	     -6.91869374
      4.18000000	      7.25038849	     -4.56831477	      7.10522596	      0.23275584	      1.08027231	     -0.19979238	      3.71100571	      7.35619464	     -7.78031033	    -12.99656233	      5.56971103	     -3.63271777	      7.74071844	     -5.90219016	      7.07945803	    -61.93481290	     -6.74721188	     14.60001268	     -6.45443864	      3.78955465	     -6.57946015
      4.19000000	      7.32850917	     -4.56893640	      7.07445358	      0.23833636	      1.08101255	     -0.19874669	      3.16133942	      7.50114073	     -7.66415342	    -12.71741803	      5.65396308	     -3.79445552	      8.53716975	     -6.04720025	      7.01330035	    -62.74474355	     -5.96200689	     13.56046694	     -6.54190704	      3.77006812	     -6.24198938
      4.20000000	      7.39050307	     -4.57188806	      7.02240576	      0.24384768	      1.08175030	     -0.19769244	      2.61460750	      7.64806912	     -7.52285447	    -12.40365322	      5.72005924	     -3.93419606	      9.29166783	     -6.20895547	      6.91137852	    -63.36248543	     -4.98814459	     12.40023369	     -6.60536719	      3.74852382	     -5.91724761
      4.21000000	      7.44402121	     -4.53960277	      6.96055481	      0.24920715	      1.08247743	     -0.19670683	      2.09741510	      7.74727728	     -7.37341580	    -12.12491117	      5.79176982	     -4.07104840	      9.99163600	     -6.31715897	      6.81581130	    -63.79237588	     -3.89269463	     11.06430535	     -6.67058670	      3.69056538	     -5.60031638
      4.22000000	      7.48712735	     -4.49761120	      6.88372985	      0.25446863	      1.08318367	     -0.19575521	      1.60140479	      7.82871199	     -7.21836586	    -11.85780939	      5.86413126	     -4.19110745	     10.63588553	     -6.41310714	      6.70825785	    -64.02934807	     -2.71999890	      9.72132011	     -6.72617136	      3.62237533	     -5.29215185
      4.23000000	      7.51727966	     -4.43985101	      6.79776542	      0.25964364	      1.08385734	     -0.19484881	      1.12855502	      7.88573686	     -7.06020077	    -11.60195183	      5.94072996	     -4.30080410	     11.22304614	     -6.49063696	      6.58638899	    -64.07348884	     -1.51106880	      8.38572956	     -6.76922564	      3.53577388	     -5.00390051
      4.24000000	      7.53643640	     -4.37373148	      6.70101074	      0.26473482	      1.08448518	     -0.19399430	      0.68171674	      7.92413809	     -6.90878538	    -11.36508633	      6.02542189	     -4.40021862	     11.75080740	     -6.55849511	      6.44701011	    -63.92978667	     -0.27968293	      7.13931703	     -6.79943427	      3.44292007	     -4.73464559
      4.25000000	      7.54204070	     -4.31274920	      6.59235564	      0.26972860	      1.08504868	     -0.19317822	      0.26130254	      7.96122297	     -6.73179026	    -11.13900397	      6.11088427	     -4.49259004	     12.22501992	     -6.63053090	      6.29530036	    -63.60752386	      0.96563336	      6.03908809	     -6.81661680	      3.35670017	     -4.46942869
      4.26000000	      7.53362942	     -4.25067658	      6.47378605	      0.27464360	      1.08554584	     -0.19240237	     -0.12985444	      7.98862750	     -6.55979085	    -10.93226218	      6.20525736	     -4.58386262	     12.64229862	     -6.70348357	      6.12187921	    -63.10710452	      2.21745293	      5.12731285	     -6.81865022	      3.26889621	     -4.21691600
      4.27000000	      7.50841091	     -4.19896311	      6.34089554	      0.27946102	      1.08596110	     -0.19165177	     -0.48821619	      8.01903125	     -6.37751635	    -10.74257423	      6.30903325	     -4.67408663	     13.00949272	     -6.78678885	      5.93251253	    -62.44048245	      3.46672892	      4.45258998	     -6.80426629	      3.18993204	     -3.95177081
      4.28000000	      7.46641327	     -4.14425101	      6.19749147	      0.28420394	      1.08630646	     -0.19093695	     -0.81878389	      8.03732347	     -6.19647858	    -10.56662544	      6.41085005	     -4.77480465	     13.32144728	     -6.87301591	      5.70728451	    -61.60601148	      4.68285215	      3.94463178	     -6.76967616	      3.10806182	     -3.71582979
      4.29000000	      7.40957099	     -4.08972631	      6.03664759	      0.28885796	      1.08658845	     -0.19024217	     -1.12403220	      8.04818244	     -6.00048651	    -10.40131869	      6.50125476	     -4.89587864	     13.57308330	     -6.95782441	      5.45413843	    -60.60944802	      5.83728897	      3.55846508	     -6.72139919	      3.02353561	     -3.49507057
      4.30000000	      7.32861414	     -4.04858892	      5.86398783	      0.29340960	      1.08677364	     -0.18959088	     -1.37372184	      8.05920752	     -5.83307791	    -10.28296933	      6.61940126	     -5.00238101	     13.78274691	     -7.05078165	      5.18163644	    -59.47176427	      6.93888536	      3.32279849	     -6.64776950	      2.95515160	     -3.28952183
      4.31000000	      7.24560382	     -3.99381936	      5.66458218	      0.29789537	      1.08694606	     -0.18898512	     -1.62903894	      8.04869885	     -5.60898920	    -10.15052097	      6.70125698	     -5.16169401	     13.90427184	     -7.11622537	      4.88445744	    -58.18084009	      7.94193045	      3.09435892	     -6.57091440	      2.87351519	     -3.06404241
      4.32000000	      7.15967848	     -3.93179901	      5.45506301	      0.30229869	      1.08709100	     -0.18844080	     -1.86888292	      8.02098261	     -5.38610807	    -10.03768366	      6.77681135	     -5.34447512	     13.94976710	     -7.15543076	      4.58407012	    -56.75958564	      8.86725228	      2.91125647	     -6.49299599	      2.78684187	     -2.86271196
